<?xml version="1.0" encoding="utf-8"?>
<!-- Generator: Adobe Illustrator 21.1.0, SVG Export Plug-In . SVG Version: 6.00 Build 0)  -->
<svg version="1.1" id="Слой_1" xmlns="http://www.w3.org/2000/svg" xmlns:xlink="http://www.w3.org/1999/xlink" x="0px" y="0px"
	 viewBox="0 0 306 311" style="enable-background:new 0 0 306 311;" xml:space="preserve">
<style type="text/css">
	.st0{fill:none;stroke:#000000;stroke-width:3;stroke-linecap:round;stroke-miterlimit:10;}
	.st1{stroke:#000000;stroke-width:3;stroke-linecap:round;stroke-miterlimit:10;}
</style>
<g id="XMLID_1_">
	<g>
		<path d="M292,41l-36.1,36.1c-2.5-12.2-12.2-21.8-24.5-24.1l36.3-36.3L292,41z"/>
		<path d="M256.5,100.5v166.3c0,17-13.8,30.7-30.7,30.7H42.2c-17,0-30.7-13.8-30.7-30.7V83.2c0-16.9,13.8-30.7,30.7-30.7h167.9
			l-16,16H57.6C41,68.5,27.5,82,27.5,98.6v152.9c0,16.6,13.5,30.1,30.1,30.1h152.9c16.6,0,30.1-13.5,30.1-30.1V116.5L256.5,100.5z"
			/>
		<path d="M255.9,77.1L240,93c-2.3-12.3-12.1-22-24.5-24.1L231.4,53C243.7,55.3,253.4,64.9,255.9,77.1z"/>
		<path d="M240,93l-36,36l-24.3-24.3l35.8-35.8C227.9,71,237.7,80.7,240,93z"/>
		<rect x="123.6" y="127.9" transform="matrix(0.7071 -0.7071 0.7071 0.7071 -54.6797 158.1715)" width="79.9" height="34.4"/>
	</g>
	<g>
		<path class="st0" d="M256.5,100.5v166.3c0,17-13.8,30.7-30.7,30.7H42.2c-17,0-30.7-13.8-30.7-30.7V83.2
			c0-16.9,13.8-30.7,30.7-30.7h167.9"/>
		<path class="st0" d="M240.5,116.5v134.9c0,16.6-13.5,30.1-30.1,30.1H57.6c-16.6,0-30.1-13.5-30.1-30.1V98.6
			C27.5,82,41,68.5,57.6,68.5h136.6"/>
		<line class="st0" x1="194.1" y1="68.5" x2="210.1" y2="52.5"/>
		<line class="st0" x1="256.5" y1="100.5" x2="240.5" y2="116.5"/>
		<line class="st0" x1="267.7" y1="16.7" x2="292" y2="41"/>
		<path class="st0" d="M267.7,16.7l7.4-7.4c3.4-3.4,8.8-3.4,12.2,0l12.2,12.2c3.4,3.4,3.4,8.8,0,12.1L292,41l-36.1,36.1L240,93
			l-36,36l-56.5,56.5l-24.3-24.3l56.5-56.5l35.8-35.8L231.4,53L267.7,16.7z"/>
		<line class="st0" x1="257.5" y1="27.5" x2="280.5" y2="51.5"/>
	</g>
</g>
<polygon class="st1" points="119.5,165.2 143.1,188.7 110.2,198 "/>
</svg>
