<?xml version="1.0" encoding="utf-8"?>
<!-- Generator: Adobe Illustrator 21.1.0, SVG Export Plug-In . SVG Version: 6.00 Build 0)  -->
<svg version="1.1" id="Слой_1" xmlns="http://www.w3.org/2000/svg" xmlns:xlink="http://www.w3.org/1999/xlink" x="0px" y="0px"
	 viewBox="0 0 1366 768" style="enable-background:new 0 0 1366 768;" xml:space="preserve">
<style type="text/css">
	.st0{fill:#FFFFFF;stroke:#201600;stroke-linecap:round;stroke-miterlimit:10;}
	.st1{fill:#8551D2;stroke:#201600;stroke-linecap:round;stroke-miterlimit:10;}
	.st2{fill:#F7F5FB;stroke:#201600;stroke-linecap:round;stroke-miterlimit:10;}
	.st3{fill:#4B1E8D;stroke:#201600;stroke-linecap:round;stroke-miterlimit:10;}
	.st4{fill:#381669;stroke:#201600;stroke-linecap:round;stroke-miterlimit:10;}
	.st5{font-family:'MyriadPro-Regular';}
	.st6{font-size:12px;}
	.st7{fill:#E0F2FF;stroke:#201600;stroke-linecap:round;stroke-miterlimit:10;}
	.st8{fill:#F0F3F6;stroke:#201600;stroke-linecap:round;stroke-miterlimit:10;}
	.st9{fill:#8FBFFF;stroke:#201600;stroke-linecap:round;stroke-miterlimit:10;}
	.st10{fill:#509AFF;stroke:#201600;stroke-linecap:round;stroke-miterlimit:10;}
	.st11{fill:#E1E7FE;stroke:#201600;stroke-linecap:round;stroke-miterlimit:10;}
	.st12{fill:#F1F2F6;stroke:#201600;stroke-linecap:round;stroke-miterlimit:10;}
	.st13{fill:#743FDD;stroke:#201600;stroke-linecap:round;stroke-miterlimit:10;}
	.st14{fill:#642AD6;stroke:#201600;stroke-linecap:round;stroke-miterlimit:10;}
	.st15{fill:#007BFF;stroke:#201600;stroke-linecap:round;stroke-miterlimit:10;}
	.st16{fill:#E3F2FD;stroke:#201600;stroke-linecap:round;stroke-miterlimit:10;}
	.st17{fill:#17A2B8;stroke:#201600;stroke-linecap:round;stroke-miterlimit:10;}
	.st18{fill:#343A40;stroke:#201600;stroke-linecap:round;stroke-miterlimit:10;}
	.st19{fill:#E27D5F;stroke:#201600;stroke-linecap:round;stroke-miterlimit:10;}
	.st20{fill:#E8A87C;stroke:#201600;stroke-linecap:round;stroke-miterlimit:10;}
	.st21{fill:#85CDCA;stroke:#201600;stroke-linecap:round;stroke-miterlimit:10;}
	.st22{fill:#C38D9D;stroke:#201600;stroke-linecap:round;stroke-miterlimit:10;}
	.st23{fill:#41B3A3;stroke:#201600;stroke-linecap:round;stroke-miterlimit:10;}
	.st24{fill:#2E1115;stroke:#201600;stroke-linecap:round;stroke-miterlimit:10;}
	.st25{fill:#64495C;stroke:#201600;stroke-linecap:round;stroke-miterlimit:10;}
	.st26{fill:#4F1B1D;stroke:#201600;stroke-linecap:round;stroke-miterlimit:10;}
	.st27{fill:#83687B;stroke:#201600;stroke-linecap:round;stroke-miterlimit:10;}
	.st28{fill:#ADADAD;stroke:#201600;stroke-linecap:round;stroke-miterlimit:10;}
	.st29{fill:#EDC8B8;stroke:#201600;stroke-linecap:round;stroke-miterlimit:10;}
	.st30{fill:#BBB2B5;stroke:#201600;stroke-linecap:round;stroke-miterlimit:10;}
	.st31{fill:#EDE2DC;stroke:#201600;stroke-linecap:round;stroke-miterlimit:10;}
	.st32{fill:#123D6A;stroke:#201600;stroke-linecap:round;stroke-miterlimit:10;}
	.st33{fill:#AB3B61;stroke:#201600;stroke-linecap:round;stroke-miterlimit:10;}
	.st34{fill:#17242A;stroke:#201600;stroke-linecap:round;stroke-miterlimit:10;}
	.st35{fill:#3AAFA9;stroke:#201600;stroke-linecap:round;stroke-miterlimit:10;}
	.st36{fill:#2B7A77;stroke:#201600;stroke-linecap:round;stroke-miterlimit:10;}
	.st37{fill:#DEF2F1;stroke:#201600;stroke-linecap:round;stroke-miterlimit:10;}
	.st38{fill:#A1C2D1;stroke:#201600;stroke-linecap:round;stroke-miterlimit:10;}
	.st39{fill:#F1EBF5;stroke:#201600;stroke-linecap:round;stroke-miterlimit:10;}
	.st40{fill:#B29BC7;stroke:#201600;stroke-linecap:round;stroke-miterlimit:10;}
	.st41{fill:#F171A1;stroke:#201600;stroke-linecap:round;stroke-miterlimit:10;}
	.st42{fill:#E64298;stroke:#201600;stroke-linecap:round;stroke-miterlimit:10;}
	.st43{fill:#00887A;stroke:#201600;stroke-linecap:round;stroke-miterlimit:10;}
	.st44{fill:#FFCCBB;stroke:#201600;stroke-linecap:round;stroke-miterlimit:10;}
	.st45{fill:#D3E3FC;stroke:#201600;stroke-linecap:round;stroke-miterlimit:10;}
	.st46{fill:#77A6F6;stroke:#201600;stroke-linecap:round;stroke-miterlimit:10;}
</style>
<circle class="st0" cx="117.7" cy="82.7" r="37.4"/>
<circle class="st1" cx="303.7" cy="83.7" r="37.4"/>
<circle class="st2" cx="210.7" cy="82.7" r="37.4"/>
<circle class="st3" cx="396.7" cy="82.7" r="37.4"/>
<circle class="st4" cx="489.7" cy="82.7" r="37.4"/>
<text transform="matrix(1 0 0 1 104.1904 148.6665)" class="st5 st6">#ffffff</text>
<text transform="matrix(1 0 0 1 281.9111 148.6665)" class="st5 st6">#8551d2</text>
<text transform="matrix(1 0 0 1 192.8589 148.6665)" class="st5 st6">#f7f5fb</text>
<text transform="matrix(1 0 0 1 374.647 148.6665)" class="st5 st6">#4b1e8d</text>
<text transform="matrix(1 0 0 1 468.2173 148.6665)" class="st5 st6">#381669</text>
<circle class="st0" cx="117.7" cy="202.7" r="37.4"/>
<circle class="st7" cx="303.7" cy="203.7" r="37.4"/>
<circle class="st8" cx="210.7" cy="202.7" r="37.4"/>
<circle class="st9" cx="396.7" cy="202.7" r="37.4"/>
<circle class="st10" cx="489.7" cy="202.7" r="37.4"/>
<text transform="matrix(1 0 0 1 104.1904 268.6665)" class="st5 st6">#ffffff</text>
<text transform="matrix(1 0 0 1 286.2729 268.6665)" class="st5 st6">#e0f2ff</text>
<text transform="matrix(1 0 0 1 193.1948 268.6665)" class="st5 st6">#f0f3f6</text>
<text transform="matrix(1 0 0 1 380.1909 268.6665)" class="st5 st6">#8fbfff</text>
<text transform="matrix(1 0 0 1 471.061 268.6665)" class="st5 st6">#509aff</text>
<circle class="st0" cx="117.7" cy="354.7" r="37.4"/>
<circle class="st11" cx="303.7" cy="355.7" r="37.4"/>
<circle class="st12" cx="210.7" cy="354.7" r="37.4"/>
<circle class="st13" cx="396.7" cy="354.7" r="37.4"/>
<circle class="st14" cx="489.7" cy="354.7" r="37.4"/>
<text transform="matrix(1 0 0 1 104.1904 420.6665)" class="st5 st6">#ffffff</text>
<text transform="matrix(1 0 0 1 283.7588 420.6665)" class="st5 st6">#e1e7fe</text>
<text transform="matrix(1 0 0 1 193.1948 420.6665)" class="st5 st6">#f1f2f6</text>
<text transform="matrix(1 0 0 1 375.9307 420.6665)" class="st5 st6">#743fdd</text>
<text transform="matrix(1 0 0 1 468.0972 420.6665)" class="st5 st6">#642ad6</text>
<circle class="st0" cx="117.7" cy="502.7" r="37.4"/>
<circle class="st15" cx="303.7" cy="503.7" r="37.4"/>
<circle class="st16" cx="210.7" cy="502.7" r="37.4"/>
<circle class="st17" cx="396.7" cy="502.7" r="37.4"/>
<circle class="st18" cx="489.7" cy="502.7" r="37.4"/>
<text transform="matrix(1 0 0 1 104.1904 568.6665)" class="st5 st6">#ffffff</text>
<text transform="matrix(1 0 0 1 284.5391 568.6665)" class="st5 st6">#007bff</text>
<text transform="matrix(1 0 0 1 191.6348 568.6665)" class="st5 st6">#e3f2fd</text>
<text transform="matrix(1 0 0 1 375.0669 568.6665)" class="st5 st6">#17a2b8</text>
<text transform="matrix(1 0 0 1 468.4028 568.6665)" class="st5 st6">#343a40</text>
<circle class="st19" cx="827.7" cy="75.7" r="37.4"/>
<circle class="st20" cx="1013.7" cy="76.7" r="37.4"/>
<circle class="st21" cx="920.7" cy="75.7" r="37.4"/>
<circle class="st22" cx="1106.7" cy="75.7" r="37.4"/>
<circle class="st23" cx="1199.7" cy="75.7" r="37.4"/>
<text transform="matrix(1 0 0 1 807.3091 141.6665)" class="st5 st6">#e27d5f</text>
<text transform="matrix(1 0 0 1 992.8647 141.6665)" class="st5 st6">#e8a87c</text>
<text transform="matrix(1 0 0 1 899.877 141.6665)" class="st5 st6">#85cdca</text>
<text transform="matrix(1 0 0 1 1084.9951 141.6665)" class="st5 st6">#c38d9d</text>
<text transform="matrix(1 0 0 1 1178.0669 141.6665)" class="st5 st6">#41b3a3</text>
<circle class="st24" cx="827.7" cy="195.7" r="37.4"/>
<circle class="st25" cx="1013.7" cy="196.7" r="37.4"/>
<circle class="st26" cx="920.7" cy="195.7" r="37.4"/>
<circle class="st27" cx="1106.7" cy="195.7" r="37.4"/>
<circle class="st28" cx="1199.7" cy="195.7" r="37.4"/>
<text transform="matrix(1 0 0 1 806.2891 261.6665)" class="st5 st6">#2e1115</text>
<text transform="matrix(1 0 0 1 992.6069 261.6665)" class="st5 st6">#64495c</text>
<text transform="matrix(1 0 0 1 899.9009 261.6665)" class="st5 st6">#4f1b1d</text>
<text transform="matrix(1 0 0 1 1084.8809 261.6665)" class="st5 st6">#83687b</text>
<text transform="matrix(1 0 0 1 1177.8569 261.6665)" class="st5 st6">#adadad</text>
<circle class="st29" cx="827.7" cy="347.7" r="37.4"/>
<circle class="st30" cx="1013.7" cy="348.7" r="37.4"/>
<circle class="st31" cx="920.7" cy="347.7" r="37.4"/>
<circle class="st32" cx="1106.7" cy="347.7" r="37.4"/>
<circle class="st33" cx="1199.7" cy="347.7" r="37.4"/>
<text transform="matrix(1 0 0 1 806.0371 413.6665)" class="st5 st6">#edc8b8</text>
<text transform="matrix(1 0 0 1 990.873 413.6665)" class="st5 st6">#bbb2b5</text>
<text transform="matrix(1 0 0 1 899.1387 413.6665)" class="st5 st6">#ede2dc</text>
<text transform="matrix(1 0 0 1 1085.0972 413.6665)" class="st5 st6">#123d6a</text>
<text transform="matrix(1 0 0 1 1177.731 413.6665)" class="st5 st6">#ab3b61</text>
<circle class="st34" cx="827.7" cy="495.7" r="37.4"/>
<circle class="st35" cx="1013.7" cy="496.7" r="37.4"/>
<circle class="st36" cx="920.7" cy="495.7" r="37.4"/>
<circle class="st37" cx="1106.7" cy="495.7" r="37.4"/>
<circle class="st0" cx="1199.7" cy="495.7" r="37.4"/>
<text transform="matrix(1 0 0 1 806.4028 561.6665)" class="st5 st6">#17242a</text>
<text transform="matrix(1 0 0 1 994.1011 561.6665)" class="st5 st6">#3aafa9</text>
<text transform="matrix(1 0 0 1 899.0669 561.6665)" class="st5 st6">#2b7a77</text>
<text transform="matrix(1 0 0 1 1087.6348 561.6665)" class="st5 st6">#def2f1</text>
<text transform="matrix(1 0 0 1 1186.1904 561.6665)" class="st5 st6">#ffffff</text>
<text transform="matrix(1 0 0 1 455 254)" class="st5 st6">ffffff</text>
<circle class="st38" cx="117.7" cy="658.7" r="37.4"/>
<circle class="st39" cx="303.7" cy="659.7" r="37.4"/>
<circle class="st40" cx="210.7" cy="658.7" r="37.4"/>
<circle class="st41" cx="396.7" cy="658.7" r="37.4"/>
<circle class="st42" cx="489.7" cy="658.7" r="37.4"/>
<text transform="matrix(1 0 0 1 96.4868 724.6665)" class="st5 st6">#a1c2d1</text>
<text transform="matrix(1 0 0 1 284.605 724.6665)" class="st5 st6">#f1ebf5</text>
<text transform="matrix(1 0 0 1 188.9351 724.6665)" class="st5 st6">#b29bc7</text>
<text transform="matrix(1 0 0 1 376.729 724.6665)" class="st5 st6">#f171a1</text>
<text transform="matrix(1 0 0 1 468.2891 724.6665)" class="st5 st6">#e64298</text>
<circle class="st43" cx="827.7" cy="651.7" r="37.4"/>
<circle class="st0" cx="1013.7" cy="652.7" r="37.4"/>
<circle class="st44" cx="920.7" cy="651.7" r="37.4"/>
<circle class="st45" cx="1106.7" cy="651.7" r="37.4"/>
<circle class="st46" cx="1199.7" cy="651.7" r="37.4"/>
<text transform="matrix(1 0 0 1 806.4028 717.6665)" class="st5 st6">#00887a</text>
<text transform="matrix(1 0 0 1 1000.1904 717.6665)" class="st5 st6">#ffffff</text>
<text transform="matrix(1 0 0 1 901.9829 717.6665)" class="st5 st6">#ffccbb</text>
<text transform="matrix(1 0 0 1 1086.6987 717.6665)" class="st5 st6">#d3e3fc</text>
<text transform="matrix(1 0 0 1 1179.729 717.6665)" class="st5 st6">#77a6f6</text>
</svg>
